<?xml version="1.0" encoding="utf-8"?>
<!-- Generator: Adobe Illustrator 19.2.1, SVG Export Plug-In . SVG Version: 6.00 Build 0)  -->
<svg version="1.1" id="Layer_1" xmlns="http://www.w3.org/2000/svg" xmlns:xlink="http://www.w3.org/1999/xlink" x="0px" y="0px"
	 viewBox="0 0 134 51" style="enable-background:new 0 0 134 51;" xml:space="preserve">
<style type="text/css">
	.st0{fill:#fff;}
</style>
<path class="st0" d="M0.8,39.2h5.8c1-0.1,2,0.2,2.8,0.9c0.7,0.7,1,1.6,0.9,2.6c0.1,1-0.3,2-0.9,2.7c-0.9,0.7-2,1.1-3.2,1h-2v4.2H0.8
	V39.2z M4.3,44.1h0.9c0.5,0,1-0.1,1.4-0.4C6.9,43.5,7,43.1,7,42.8s-0.1-0.7-0.3-0.9c-0.4-0.3-0.9-0.4-1.3-0.4h-1L4.3,44.1L4.3,44.1z
	"/>
<path class="st0" d="M23.5,48.7h-4L19,50.6h-3.6l4.3-11.3h3.8l4.3,11.3H24L23.5,48.7z M22.7,46.2l-1.3-4.1l-1.2,4.1H22.7z"/>
<path class="st0" d="M31.9,39.2h3.9l2.3,3.9l2.3-3.8h3.8l-4.4,6.6v4.7h-3.5v-4.7L31.9,39.2z"/>
<path class="st0" d="M50.9,39.2h4.6l1.8,6.9l1.8-6.9h4.6v11.3h-2.9v-8.7l-2.2,8.7H56l-2.2-8.7v8.7h-2.9
	C50.9,50.5,50.9,39.2,50.9,39.2z"/>
<path class="st0" d="M71.4,39.2h9.5v2.4H75v1.8h5.5v2.3H75V48h6v2.6h-9.6V39.2z"/>
<path class="st0" d="M88.4,39.2h3.3l4.3,6.3v-6.3h3.3v11.3H96l-4.3-6.2v6.2h-3.3C88.4,50.5,88.4,39.2,88.4,39.2z"/>
<path class="st0" d="M106.4,39.2H117V42h-3.5v8.5h-3.6V42h-3.6L106.4,39.2L106.4,39.2z"/>
<path class="st0" d="M123.5,46.8l3.3-0.2c0,0.4,0.2,0.9,0.4,1.2c0.4,0.5,1,0.7,1.6,0.7c0.4,0,0.8-0.1,1.2-0.4
	c0.2-0.2,0.4-0.5,0.4-0.8s-0.2-0.6-0.4-0.8c-0.5-0.3-1.2-0.6-1.8-0.6c-1.2-0.2-2.3-0.7-3.3-1.4c-0.7-0.5-1-1.3-1-2.2
	c0-0.6,0.2-1.2,0.5-1.7c0.4-0.6,0.9-1,1.6-1.2c0.9-0.3,1.8-0.5,2.8-0.4c1.2-0.1,2.3,0.2,3.3,0.8c0.8,0.6,1.3,1.6,1.4,2.6l-3.3,0.2
	c0-0.4-0.2-0.8-0.6-1.1c-0.3-0.3-0.7-0.4-1.2-0.3c-0.3,0-0.6,0.1-0.9,0.3c-0.2,0.2-0.3,0.4-0.3,0.6c0,0.2,0.1,0.4,0.3,0.5
	c0.4,0.2,0.8,0.4,1.2,0.4c1.1,0.2,2.2,0.5,3.3,1c0.6,0.3,1.1,0.7,1.5,1.3c0.3,0.5,0.5,1.1,0.5,1.7c0,0.7-0.2,1.4-0.6,2
	c-0.4,0.6-1,1.1-1.7,1.4c-0.9,0.3-1.8,0.5-2.7,0.5c-1.4,0.2-2.9-0.2-4-1.1C124.1,48.9,123.6,47.9,123.5,46.8z"/>
<polygon class="st0" points="7.7,5.2 3,1.5 0,1.5 0,27.6 3.2,27.6 3.2,5.4 7.7,8.7 7.7,27.6 10.8,27.6 10.8,1.5 7.7,1.5 "/>
<polygon class="st0" points="29.2,10.8 27.9,7.8 23.4,7.8 23.4,4.3 28.2,4.3 28.2,1.5 20.5,1.5 20.5,8 18.3,8 19.4,10.6 20.5,10.6 
	20.5,27.6 28.3,27.6 28.3,24.7 23.5,24.7 23.5,10.8 "/>
<polygon class="st0" points="37,4.6 41,4.6 41,27.6 44.1,27.6 44.1,4.6 47.6,4.6 47.6,1.5 37,1.5 "/>
<rect x="110.2" y="1.5" class="st0" width="3.2" height="26.1"/>
<path class="st0" d="M128.4,1.5c-4.6,0-4.9,3.5-4.9,3.5v2.9h-2l1,3h1v16.8h3.2V10.8h3.8v16.8h2.9V4.9C133.3,4.9,133,1.5,128.4,1.5z
	 M130.5,7.7h-3.9V5.5c0,0-0.2-1.3,1.6-1.3c1.8,0,2.2,1.1,2.2,1.1L130.5,7.7z"/>
<path class="st0" d="M67.1,0.5C59.3,0.4,53,6.6,52.9,14.4l0,0c0,7.8,6.4,14.2,14.2,14.2s14.2-6.4,14.2-14.2
	C81.2,6.6,74.8,0.4,67.1,0.5L67.1,0.5z M67.1,25.1c-6,0.1-10.9-4.7-11-10.7l0,0C56.9,8.3,62.4,4,68.4,4.8c5.1,0.6,9,4.6,9.6,9.6
	C78,20.4,73.1,25.2,67.1,25.1L67.1,25.1z"/>
<path class="st0" d="M92.2,1.5h-3v26.1h3.3v-4.7c0,0,10.2-0.6,10.2-10.4S92.2,1.5,92.2,1.5z M92.3,20.3V4.7c1.3,0,7.6,1.3,7.6,7.9
	S92.3,20.3,92.3,20.3z"/>
</svg>
